<svg width="344" height="100" viewBox="0 0 344 100" fill="none" xmlns="http://www.w3.org/2000/svg">
<path fill-rule="evenodd" clip-rule="evenodd" d="M129.938 86.9555L129.936 86.9578L129.933 86.9555H129.938ZM129.938 86.9555L164.719 48.8725L133.252 14H157.027L176.759 35.6605L196.541 14H220.382L188.828 48.8908L223.506 86.9555H199.073L176.768 62.2311L154.417 86.9555H129.938ZM11.258 40.3435C14.698 40.3435 16.4386 42.3089 17.1243 45.0173H21.2408C20.7432 39.9353 16.5693 37.0136 11.258 36.9814C4.21743 36.9814 0 42.568 0 49.2944C0 56.0207 4.21743 61.6164 11.258 61.6164C16.9615 61.6164 20.945 57.7224 21.2844 52.1014H17.2665C16.9294 55.5208 14.909 58.259 11.258 58.259C6.22639 58.259 4.11195 53.8122 4.11195 49.2967C4.11195 44.7811 6.2241 40.3435 11.258 40.3435ZM27.1395 53.5119C27.1395 56.1882 28.5843 58.5526 31.7055 58.5526C33.8819 58.5526 35.212 57.5963 35.8542 55.7273H39.4134C38.5947 59.4379 35.4345 61.5179 31.7055 61.5179C26.3667 61.5179 23.3784 57.7867 23.3784 52.5624C23.3784 47.7097 26.5478 43.568 31.6092 43.568C36.9756 43.568 40.278 48.4115 39.645 53.5119H27.1395ZM35.8978 51.0397C35.7556 48.6775 34.1433 46.5333 31.6115 46.5333C29.0773 46.5333 27.229 48.5078 27.1395 51.0397H35.8978ZM46.3417 37.5365H42.5852V61.0592H46.3417V37.5365ZM52.8659 53.5119C52.8659 56.1882 54.3108 58.5526 57.4458 58.5526C59.613 58.5526 60.927 57.5963 61.5829 55.7273H65.1445C64.312 59.4379 61.1655 61.5179 57.4458 61.5179C52.1069 61.5179 49.114 57.7867 49.114 52.5624C49.114 47.7097 52.2697 43.568 57.3357 43.568C62.7044 43.568 65.9953 48.4115 65.3692 53.5119H52.8659ZM61.6265 51.0397C61.4866 48.6775 59.8698 46.5333 57.3357 46.5333C54.8038 46.5333 52.9531 48.5078 52.8636 51.0397H61.6242H61.6265ZM71.9464 37.5365H68.2014V61.0615H71.7561V58.7269H71.8225C72.9486 60.9606 75.4094 61.5225 77.721 61.5225C82.7572 61.5225 85.062 57.2018 85.062 52.6243C85.062 47.6616 82.4636 43.5726 77.0858 43.5726C75.1777 43.5726 73.0403 44.5908 72.0198 46.242H71.9464V37.5365ZM71.8225 52.5647C71.8225 48.9435 73.4302 46.5332 76.5996 46.5332C79.6864 46.5332 81.3124 49.4618 81.3124 52.5647C81.3124 55.5208 80.0189 58.5526 76.5996 58.5526C73.5632 58.5526 71.8225 55.9909 71.8225 52.5647ZM88.392 44.0244H91.9191V47.3108H91.9764C92.4053 45.4967 94.6528 43.568 96.953 43.568C97.5943 43.568 97.8891 43.6058 98.1338 43.6371C98.2138 43.6474 98.2884 43.657 98.368 43.6643V47.2832C98.27 47.2704 98.1708 47.2568 98.0708 47.243L98.0707 47.243C97.6323 47.1827 97.1792 47.1204 96.7534 47.1204C94.1872 47.1204 92.1438 49.2005 92.1438 52.9455V61.057H88.392V44.0244ZM105.053 37.5365H101.29V41.0958H105.053V37.5365ZM105.053 44.0266H101.29V61.0615H105.053V44.0266ZM108.243 44.0243H111.073V38.9216H114.827V44.0243H118.212V46.8199H114.827V55.9129C114.827 57.4609 114.942 58.2567 116.637 58.2567H116.637C117.162 58.2567 117.692 58.2567 118.212 58.1214V61.0271C117.915 61.0486 117.623 61.0796 117.333 61.1105L117.332 61.1105C116.817 61.1653 116.305 61.2198 115.777 61.2198C111.86 61.2198 111.133 59.6993 111.073 56.8762V46.8222H108.243V44.0266V44.0243ZM124.56 44.0243H120.45L126.897 60.9881L126.477 62.2975C126.003 63.7515 125.587 64.6781 123.838 64.6781C123.38 64.6781 122.92 64.597 122.46 64.5157C122.325 64.492 122.191 64.4682 122.056 64.4464V67.6158C122.913 67.7396 123.776 67.8061 124.656 67.8061C128.373 67.8061 129.364 65.3097 130.506 62.433C130.566 62.2818 130.627 62.1295 130.688 61.9765L137.311 44.0243H133.392L129.073 56.7385H129.007L124.56 44.0243ZM233.188 45.0173C232.484 42.3089 230.753 40.3435 227.315 40.3435C222.284 40.3435 220.169 44.7811 220.169 49.2967C220.169 53.8122 222.286 58.259 227.315 58.259C230.971 58.259 232.987 55.5208 233.314 52.1014H237.337C237 57.7224 233.021 61.6164 227.317 61.6164C220.275 61.6164 216.05 56.0207 216.05 49.2944C216.05 42.568 220.275 36.9814 227.317 36.9814C232.629 37.0136 236.803 39.9353 237.3 45.0173H233.191H233.188ZM244.246 44.0244H240.717V61.057H244.476V52.9455C244.476 49.2005 246.531 47.1204 249.095 47.1204C249.506 47.1204 249.928 47.1777 250.354 47.2355L250.354 47.2356C250.474 47.2518 250.594 47.2681 250.714 47.2832V43.6643C250.631 43.6568 250.554 43.647 250.472 43.6366C250.227 43.6053 249.934 43.568 249.29 43.568C246.992 43.568 244.749 45.4967 244.315 47.3108H244.246V44.0244ZM268.742 61.0592H265.064V58.681H264.995C264.068 60.3826 262.034 61.5201 260.147 61.5201C255.704 61.5201 253.796 59.2773 253.796 54.8282V44.0266H257.564V54.4704C257.564 57.4632 258.775 58.5549 260.814 58.5549C263.94 58.5549 264.995 56.5459 264.995 53.9109V44.0289H268.742V61.0592ZM276.917 37.5365H273.159V41.0958H276.917V37.5365ZM276.917 44.0266H273.159V61.0615H276.917V44.0266ZM284.474 55.585C284.662 57.7591 286.309 58.5503 288.309 58.5503C289.728 58.5503 292.21 58.2567 292.097 56.3096C292.013 54.6328 290.017 54.2134 287.737 53.7343C287.342 53.6512 286.938 53.5663 286.533 53.4728C283.781 52.8948 281.078 51.9041 281.078 48.4412C281.078 44.7076 285.089 43.5656 288.18 43.5656C291.675 43.5656 294.831 45.0127 295.312 48.7898H291.382C291.056 47.0193 289.572 46.5308 287.921 46.5308C286.836 46.5308 284.827 46.8014 284.827 48.2806C284.827 49.8564 286.857 50.2758 289.181 50.7558L289.182 50.756C289.57 50.8362 289.967 50.9182 290.363 51.0075C293.09 51.6358 295.858 52.6197 295.858 55.984C295.858 60.0271 291.769 61.5155 288.26 61.5155C283.965 61.5155 280.775 59.6006 280.704 55.5827H284.474V55.585ZM306.394 58.5526C303.273 58.5526 301.807 56.1882 301.807 53.5119H301.81H314.345C314.962 48.4115 311.673 43.568 306.293 43.568C301.234 43.568 298.074 47.7097 298.074 52.5624C298.074 57.7867 301.062 61.5179 306.394 61.5179C310.125 61.5179 313.272 59.4379 314.107 55.7273H310.545C309.887 57.5963 308.582 58.5526 306.394 58.5526ZM306.291 46.5333C308.832 46.5333 310.453 48.6775 310.58 51.0397H301.807C301.918 48.5078 303.752 46.5333 306.291 46.5333ZM320.862 55.585C321.06 57.7591 322.697 58.5503 324.706 58.5503C326.123 58.5503 328.596 58.2567 328.501 56.3096C328.421 54.6337 326.42 54.2139 324.138 53.7351C323.74 53.6518 323.334 53.5666 322.929 53.4728C320.165 52.8948 317.461 51.9041 317.461 48.4412C317.461 44.7076 321.488 43.5656 324.58 43.5656C328.073 43.5656 331.231 45.0127 331.701 48.7898H327.774C327.444 47.0193 325.965 46.5308 324.323 46.5308C323.227 46.5308 321.22 46.8014 321.22 48.2806C321.22 49.8543 323.25 50.2746 325.564 50.7539L325.564 50.754C325.955 50.8349 326.353 50.9174 326.752 51.0075C329.488 51.6358 332.253 52.6197 332.253 55.984C332.253 60.0271 328.162 61.5155 324.66 61.5155C320.374 61.5155 317.17 59.6006 317.113 55.5827H320.867L320.862 55.585ZM344 48.1524C344 45.6182 342.002 43.568 339.493 43.568H339.477C336.971 43.568 334.93 45.5701 334.93 48.1524C334.93 50.7369 336.955 52.7643 339.477 52.7643C342.002 52.7643 344 50.6888 344 48.1524ZM335.815 48.1547C335.815 46.0196 337.464 44.2927 339.477 44.2927H339.491C341.532 44.2927 343.17 46.0219 343.17 48.1776C343.17 50.3333 341.532 52.0602 339.491 52.0487C337.464 52.0487 335.815 50.292 335.815 48.1547ZM337.803 50.8264H338.622V48.6271H339.177C339.842 48.6271 340.168 48.8656 340.287 49.5215C340.386 50.1912 340.507 50.6544 340.635 50.8264H341.484C341.411 50.6567 341.282 50.3585 341.17 49.5673C341.064 48.8128 340.759 48.4047 340.319 48.3175V48.2785C340.862 48.1272 341.314 47.7075 341.314 47.0333C341.314 46.5494 341.142 46.2053 340.84 45.9783C340.535 45.7558 340.021 45.5908 339.25 45.5908C338.633 45.5908 338.232 45.6458 337.803 45.7077V50.8264ZM339.202 47.9941H338.624V46.2627C338.644 46.2605 338.664 46.2581 338.685 46.2556C338.815 46.2401 338.973 46.2214 339.202 46.2214C340.129 46.2214 340.452 46.6709 340.452 47.1181C340.452 47.751 339.888 47.9941 339.202 47.9941Z" fill="white"/>
</svg>
