<svg width="310" height="100" viewBox="0 0 310 100" fill="none" xmlns="http://www.w3.org/2000/svg">
<path fill-rule="evenodd" clip-rule="evenodd" d="M0 89.4904V11H310V89.4904H0ZM1.48563 87.7572H75.2716V12.4856H1.48563V87.7572ZM76.7572 87.7572H308.514V65.4729H76.7572V87.7572ZM76.7572 63.9872H308.514V12.4856H76.7572V63.9872ZM90.6228 81.8127H89.1371V71.1657H90.6228V81.8127ZM101.022 71.1657H103.251L107.708 79.5842V71.1657H109.193V81.8127H107.212L102.508 73.1465V81.8127H101.022V71.1657ZM118.602 72.4037H121.821V81.8127H123.307V72.4037H126.525V71.1657H118.602V72.4037ZM135.934 71.1657H141.877V72.4037H137.667V75.6226H141.381V76.8606H137.667V80.3271H141.877V81.8127H135.934V71.1657ZM154.752 75.8702H153.514V72.6513H155C156.238 72.6513 156.981 73.1465 156.981 74.137C156.981 75.375 156.238 75.8702 154.752 75.8702ZM154.505 71.1657H152.029V81.5651H153.514V76.8606H154.257C155 76.8606 155.495 76.8606 155.99 77.851L157.476 81.5651H159.209L157.228 77.3558C156.981 76.8606 156.733 76.613 156.238 76.3654C157.476 76.1178 158.466 75.1274 158.466 73.8894C158.466 71.4133 156.486 71.1657 154.505 71.1657ZM169.361 71.1657H171.094L175.799 79.5842V71.1657H177.285V81.8127H175.304L170.599 73.1465V81.8127H169.361V71.1657ZM189.912 77.851L191.893 72.6513L193.874 77.851H189.912ZM192.636 71.1657H191.15L186.941 81.8127H188.426L189.417 79.089H194.617L195.607 81.8127H197.093L192.636 71.1657ZM207.492 72.4037H204.273V71.1657H212.196V72.4037H208.978V81.8127H207.492V72.4037ZM223.091 81.8127H221.605V71.1657H223.091V81.8127ZM238.195 80.5745C240.424 80.5745 241.414 78.5937 241.414 76.3653C241.414 74.3844 240.176 72.156 238.195 72.156C235.967 72.156 234.729 74.1368 234.729 76.3653C234.729 78.5937 235.719 80.5745 238.195 80.5745ZM238.195 70.918C241.414 70.918 243.147 73.394 243.147 76.3653C243.147 79.5841 241.166 81.8126 238.195 81.8126C234.976 81.8126 233.243 79.5841 233.243 76.3653C233.243 73.394 234.976 70.918 238.195 70.918ZM255.28 71.1657H253.299V81.8127H254.784V73.1465L259.489 81.8127H261.47V71.1657H259.736V79.5842L255.28 71.1657ZM275.831 72.6513L273.85 77.851H277.812L275.831 72.6513ZM275.088 71.1657H276.574L281.031 81.8127H279.545L278.554 79.089H273.355L272.364 81.8127H270.879L275.088 71.1657ZM291.925 71.1657H290.687V81.8127H296.381V80.3271H291.925V71.1657ZM38.3788 21.8925C39.0559 22.5695 39.7483 23.2466 40.4445 23.9275C42.5491 25.9856 44.6892 28.0784 46.5497 30.311L43.5785 34.2727V34.5203L51.7494 38.2343L57.1967 34.2727L53.9779 30.5586V30.311C57.1967 27.835 60.168 25.6065 63.6344 23.1305L61.9012 39.9675H14.8565L13.1232 23.1305C15.7791 24.8379 18.1444 26.6906 20.553 28.5773L20.553 28.5774C21.2881 29.1531 22.0272 29.7321 22.7798 30.311V30.5586L19.5609 34.2727L25.0082 38.2343L33.1791 34.5203V34.2727L29.9603 30.311L38.3788 21.8925ZM61.6323 43.1864L61.6538 42.9388V43.1864H61.6323ZM15.8471 43.1864H61.6323L61.1586 48.6337H43.8263V67.9468H52.4925C54.4733 67.9468 56.4542 65.966 55.9589 64.4803C55.4637 62.4995 53.7305 61.2615 52.2449 60.2711C52.3622 60.2711 53.7573 59.2711 55.4828 58.0342C57.4 56.6599 59.7251 54.9932 61.1586 54.081C60.911 55.319 59.1778 70.9181 59.1778 71.4133L38.8743 79.3366H38.6267L18.3232 71.4133C18.3232 71.3368 18.134 69.7707 17.8726 67.6064C17.2881 62.7669 16.3423 54.9365 16.3423 54.081C19.066 56.0619 25.0085 60.2711 25.2561 60.2711C23.7704 61.2615 22.0372 62.4995 21.542 64.4803C21.0468 65.7184 23.0276 67.9468 25.0085 67.9468H33.6746V48.6337H16.3423L15.8471 43.1864ZM91.8609 37.4916C95.0798 37.4916 99.0415 35.7583 99.0415 31.7967C99.0415 27.5874 95.3274 25.8542 91.8609 26.1018V37.4916ZM88.8897 33.0347C88.8897 27.5874 88.6421 26.597 84.928 26.3494V25.8542L93.5942 25.6066C102.508 25.359 103.251 29.8158 103.251 31.3015C103.251 34.2727 101.27 36.0059 98.7938 37.244L99.0415 37.4916C101.765 42.4436 105.232 48.3861 110.926 49.8717L110.431 50.1193C109.868 50.0818 109.327 50.0556 108.807 50.0305L108.807 50.0305L108.807 50.0304C105.902 49.8899 103.655 49.7812 101.765 47.8909C99.5367 45.4149 97.5558 42.196 96.813 40.7104C95.7217 38.5279 94.7641 38.4829 93.3512 38.4166C92.8407 38.3926 92.2706 38.3658 91.6133 38.2344V43.9292C91.6133 47.8909 91.6133 48.6337 96.5654 49.3766V50.1193H84.1852V49.6242C88.3134 49.1385 88.3929 47.9383 88.628 44.3887L88.6421 44.1768L88.8897 33.0347ZM110.184 41.9484C110.184 38.7296 111.917 34.7679 115.631 34.7679C119.345 34.7679 121.079 39.2248 121.079 42.4436C121.079 45.4149 119.345 49.6242 115.879 49.6242C112.165 49.6242 110.184 45.4149 110.184 41.9484ZM106.965 42.4436C106.965 47.3957 110.927 50.6146 115.631 50.6146C120.336 50.6146 124.298 47.1481 124.298 42.196C124.298 37.244 120.336 34.0251 115.631 34.0251C110.927 34.0251 106.965 37.4915 106.965 42.4436ZM125.535 37.2439C125.04 35.5107 124.792 35.2631 123.059 35.0155V34.5203H130.239V35.0155C127.611 35.2544 128.211 36.646 128.923 38.3005L129.001 38.4819L132.468 47.6433L134.696 41.2056L134.851 40.717C136.213 36.4144 136.58 35.2543 133.953 35.0155V34.5203H140.144V35.0155C138.658 35.2631 138.163 36.0059 137.42 37.2439L135.934 40.7104L130.487 54.5762C129.249 58.0427 128.259 59.0331 126.773 59.0331C125.783 59.0331 125.04 58.2903 125.04 57.2999C125.04 56.557 125.535 55.8142 126.278 55.5666C126.525 55.8142 127.763 56.557 128.259 56.557C129.001 56.557 129.744 54.5762 129.744 54.081L130.982 51.3574L125.535 37.2439ZM141.877 45.6625C141.877 45.1673 141.877 44.6721 142.125 44.1768L146.829 41.7008V47.1481C146.334 47.8909 145.343 48.3861 144.353 48.3861C142.867 48.3861 141.877 47.1481 141.877 45.6625ZM143.61 35.5107C146.334 35.5107 147.324 36.9964 147.077 40.958L139.153 44.6721C138.906 45.4149 138.906 45.9101 138.906 46.4053C138.906 48.6337 140.144 50.6146 142.372 50.6146C144.105 50.6146 145.591 49.3765 146.829 48.1385C147.077 49.3765 147.572 50.3669 149.057 50.3669H149.058C149.715 50.3669 150.483 50.3669 151.286 50.2218C151.443 50.1935 151.601 50.1597 151.76 50.1193H159.457V49.6241C156.981 49.3765 156.734 49.1289 156.734 46.1577V25.8542H156.238L152.277 27.3398V27.835C154.01 29.073 154.01 29.5682 154.01 31.0538V46.1577C154.01 47.9388 153.852 48.7709 152.524 49.1596V49.129C149.526 49.5902 149.535 47.9034 149.55 45.069C149.551 44.8603 149.553 44.6453 149.553 44.4245V39.4724C149.553 36.5012 148.562 34.0251 145.343 34.0251C142.62 34.0251 138.658 37.7392 138.658 38.7296C138.658 38.9772 139.401 38.9772 139.648 38.9772L141.382 38.7296C141.382 38.5597 141.38 38.3953 141.378 38.2366L141.378 38.2338C141.359 36.5443 141.348 35.5107 143.61 35.5107ZM187.684 45.6625C187.684 45.1673 187.684 44.6721 187.931 44.1768L192.636 41.7008V47.1481C192.141 47.8909 191.15 48.3861 190.16 48.3861C188.674 48.3861 187.684 47.1481 187.684 45.6625ZM189.169 35.5107C191.893 35.5107 192.883 36.9964 192.636 40.958L184.712 44.6721C184.465 45.4149 184.465 45.9101 184.465 46.4053C184.465 48.6337 185.703 50.6146 187.931 50.6146C189.665 50.6146 191.15 49.3765 192.388 48.1385C192.636 49.3765 193.131 50.3669 194.617 50.3669H194.617C195.403 50.3669 196.345 50.3669 197.319 50.1193H205.759V49.6242C202.54 49.3766 202.292 49.129 202.292 46.1577L202.045 42.4436L202.045 42.4274L202.044 42.3949L202.043 42.3336C202.028 41.4531 201.949 36.9837 204.768 36.7487C205.511 36.7487 206.501 37.4916 206.997 37.9868C207.987 37.7392 208.978 36.9964 208.978 35.7583C208.978 34.5203 208.235 34.0251 207.244 34.0251C205.016 34.0251 203.035 36.5011 202.292 38.482L202.54 34.2727L202.045 34.0251L197.835 35.7583V36.0059C199.569 37.244 199.569 37.7392 199.569 39.2248V45.6625C199.321 48.3861 199.073 48.8814 196.845 49.129V49.2688C195.087 49.1809 195.097 47.4677 195.109 45.0695L195.111 44.7828C195.111 44.6649 195.112 44.5454 195.112 44.4245V39.4724C195.112 36.5012 194.121 34.0251 190.903 34.0251C188.179 34.0251 184.217 37.7392 184.217 38.7296C184.217 38.9772 184.96 38.9772 185.208 38.9772L186.941 38.7296C186.941 38.5597 186.939 38.3952 186.937 38.2366L186.937 38.2337C186.918 36.5443 186.907 35.5107 189.169 35.5107ZM182.236 32.787H181.741C180.998 28.8253 178.77 25.8541 174.561 25.8541C168.123 25.8541 164.657 31.3014 164.657 37.4915C164.657 44.672 170.104 49.6241 175.056 49.6241C179.76 49.6241 181.494 46.1576 182.979 42.4435L183.474 42.6912C183.08 44.4679 182.527 46.0873 181.943 47.8003C181.795 48.2357 181.644 48.6772 181.494 49.1289C179.265 50.3669 176.789 50.6145 174.313 50.6145C166.885 50.6145 160.447 46.4052 160.447 38.2343C160.447 31.7966 165.399 25.3589 174.808 25.3589C177.532 25.3589 180.256 25.8541 182.484 27.3397L182.236 32.787ZM271.374 45.9099C271.374 45.4147 271.374 44.9196 271.621 44.4244L276.326 41.9483V47.3956C275.831 48.1384 274.84 48.6336 273.85 48.6336C272.364 48.6336 271.374 47.3956 271.374 45.9099ZM272.612 35.7582C275.335 35.7582 276.326 37.2438 276.078 41.2055L268.155 44.672C267.907 45.4148 267.907 45.91 267.907 46.4052C267.907 48.6336 269.145 50.6145 271.374 50.6145C273.107 50.6145 274.593 49.3764 275.831 48.1384C276.078 49.3764 276.573 50.3668 278.059 50.3668C278.303 50.3668 278.547 50.3818 278.794 50.3971C279.301 50.4282 279.823 50.4604 280.392 50.3668H288.706V49.8716C286.23 49.624 285.983 49.3764 285.983 46.4052V37.739C287.221 36.7486 288.211 36.2534 289.697 36.2534C293.935 36.2534 293.919 39.6121 293.907 42.0709C293.906 42.1977 293.906 42.3221 293.906 42.4435V46.6528C293.906 49.1288 293.906 49.624 291.182 50.1192V50.6145H299.353V50.1192C296.877 49.8716 296.629 49.624 296.629 46.6528V40.2151C296.629 37.9867 296.382 34.5202 292.173 34.5202C289.944 34.5202 287.963 35.7582 285.983 37.2438L286.23 34.5202L285.735 34.2726L281.526 36.0058V36.501C283.259 37.739 283.259 38.2342 283.259 39.7199H283.011V46.4052C283.011 48.7105 282.834 49.4194 281.278 49.7328V49.624C278.459 49.8409 278.489 48.3482 278.539 45.8115V45.8105V45.8095V45.8084V45.8073V45.806V45.8048C278.547 45.4472 278.554 45.069 278.554 44.672V39.7199C278.554 36.7486 277.564 34.2726 274.345 34.2726C271.621 34.2726 267.66 37.9866 267.66 38.9771C267.66 39.2247 268.402 39.2246 268.65 39.2246L270.383 38.9771C270.383 38.8061 270.382 38.6408 270.38 38.4812C270.361 36.7918 270.349 35.7582 272.612 35.7582ZM214.177 29.5682C214.92 29.5682 215.91 28.8254 215.91 27.835C215.91 27.0922 214.92 26.1017 214.177 26.1017C213.434 26.1017 212.444 26.8446 212.444 27.835C212.444 28.5778 213.187 29.5682 214.177 29.5682ZM210.216 49.6241V50.1193H218.634V49.6241C216.158 49.3765 215.91 49.1289 215.91 46.1577V34.2727L215.415 34.0251L210.711 35.5107V36.0059C212.939 37.2439 212.939 37.7391 212.939 39.2247V46.1577C212.939 48.6337 212.939 49.1289 210.216 49.6241ZM239.185 43.1864C239.185 46.6529 239.433 49.6241 243.642 49.6241C245.623 49.6241 248.842 47.8909 248.842 43.1864C248.842 38.9771 246.118 36.0059 242.652 36.0059C241.414 36.0059 240.423 36.2535 239.185 36.7487V43.1864ZM236.462 31.0538C236.462 29.5682 236.462 29.073 234.728 27.835V27.3398L238.938 25.8542H239.185V36.0059C240.919 35.0155 243.147 34.0251 244.88 34.0251C248.842 34.0251 251.566 37.7391 251.566 41.4532C251.566 47.8909 245.871 50.6146 241.909 50.6146C239.681 50.6146 238.195 50.1194 236.462 49.1289V31.0538ZM226.805 49.6241C222.596 49.6241 222.348 46.6529 222.348 43.1864V36.7487C223.586 36.2535 224.577 36.0059 225.815 36.0059C229.281 36.0059 232.005 38.9771 232.005 43.1864C232.005 47.8909 228.786 49.6241 226.805 49.6241ZM217.891 27.835C219.625 29.073 219.625 29.5682 219.625 31.0538V49.1289C221.358 50.1194 222.843 50.6146 225.072 50.6146C229.034 50.6146 234.728 47.8909 234.728 41.4532C234.728 37.7391 232.005 34.0251 228.043 34.0251C226.31 34.0251 224.081 35.0155 222.348 36.0059V25.8542H222.101L217.891 27.3398V27.835ZM263.203 38.2344C262.955 36.5011 261.965 34.7679 259.984 34.7679C258.003 34.7679 256.765 36.7488 256.27 38.7296L263.203 38.2344ZM256.27 40.958C256.022 44.6721 258.498 48.1385 262.46 48.1385C264.441 48.1385 265.431 47.1481 266.669 45.9101L267.164 46.4053C265.926 48.8813 263.45 50.6146 260.727 50.6146C256.27 50.6146 253.299 46.9005 253.299 42.6912C253.299 37.9868 256.518 34.0251 261.222 34.0251C264.441 34.0251 266.422 36.006 266.669 39.4724H256.518L256.27 40.958Z" fill="white"/>
</svg>
