<svg width="344" height="100" viewBox="0 0 344 100" fill="none" xmlns="http://www.w3.org/2000/svg">
<path fill-rule="evenodd" clip-rule="evenodd" d="M28.1556 59.9212C25.6306 56.1257 22.5164 54.736 19.4983 53.3967L19.4673 53.3828C17.8734 52.6724 16.3658 52.0005 14.9644 51.0002C13.9141 50.248 12.96 49.0118 11.9532 47.7C10.6162 45.9571 9.09569 43.9803 6.99041 42.6662L6.65559 42.4552L16.1684 35.3344C18.3356 36.2357 20.0166 38.4304 21.5004 40.3682L21.5205 40.3945L21.5205 40.3945L21.5205 40.3945L21.5205 40.3946L21.5205 40.3946C22.4923 41.6645 23.408 42.8611 24.3304 43.517C24.4015 43.5675 25.5413 44.3013 25.5413 44.3013L22.3672 46.7322C21.9957 46.5144 21.6334 46.2828 21.2802 46.0282C20.544 45.5022 19.8109 44.5573 19.052 43.5794C18.1798 42.4552 17.2736 41.2873 16.29 40.6618L13.2076 42.9941C14.4319 43.8039 15.3431 45.0087 16.1804 46.1159L16.1804 46.1159C16.8583 47.0122 17.4878 47.8445 18.1957 48.3514C19.5846 49.3443 21.1156 50.0238 22.6851 50.7203C25.7157 52.0654 28.8895 53.4739 31.458 57.3252C32.4716 56.5317 33.5175 55.7176 34.5013 54.9631C31.9318 51.1369 28.7673 49.7303 25.7445 48.3867L25.5619 48.3055L31.3824 43.7463C29.8849 43.0835 28.4629 42.4414 27.1397 41.4943C26.0343 40.7031 25.1147 39.4074 24.1446 38.0337L24.1366 38.0224C22.1893 35.2823 19.9873 32.184 15.3107 31C15.1066 31.461 14.4828 32.4929 12.7491 33.6648L0.32373 43.3702C4.43077 44.6452 6.51769 47.5803 8.3683 50.1831L8.36873 50.1837L8.38816 50.2109L8.38817 50.2109C9.35567 51.5655 10.2725 52.8491 11.3409 53.6122C12.7069 54.5908 14.1987 55.2534 15.7776 55.9546L15.7808 55.956C18.863 57.3229 22.0393 58.7402 24.6469 62.6411C24.9955 62.3659 25.3646 62.0884 25.7591 61.7994C25.9275 61.6761 26.6277 61.1246 27.6212 60.342L27.6217 60.3417L28.1556 59.9212ZM21.4839 65.3289C18.9611 61.5092 15.8429 60.1189 12.8209 58.7715L12.7968 58.7607C11.1915 58.0521 9.67334 57.3779 8.26294 56.3665C6.6966 55.2451 5.12789 52.9999 3.72667 50.9589L0 53.8484C1.02971 54.7291 1.81856 55.7358 2.52261 56.6463L2.54166 56.6706C3.22261 57.54 3.86647 58.362 4.59129 58.8846C5.83232 59.7688 7.26653 60.4246 8.78877 61.1207L8.78879 61.1207L8.78882 61.1207L8.78885 61.1207L8.88891 61.1665L8.89845 61.1708C12.2375 62.6879 16.0053 64.3999 18.6058 68.9776C18.6397 68.9096 18.6826 68.8391 18.7258 68.768L18.7258 68.7679L18.7259 68.7678L18.7261 68.7675L18.746 68.7347L18.7709 68.6932C19.0255 68.1497 19.7066 67.0351 21.4839 65.3289ZM53.1712 65.1134C49.9674 65.1134 46.6444 64.6341 43.7502 63.758L42.5164 57.9444H43.9749C45.0229 60.9303 48.4263 63.4782 53.5404 63.4782C58.2807 63.4782 61.9753 61.6872 61.9753 58.5407C61.9753 55.0596 57.9453 53.6992 53.6755 52.2579C48.8651 50.634 43.7502 48.9074 43.7502 43.9299C43.7502 38.7905 49.4147 36.1234 56.9277 36.1234C58.8399 36.1234 60.7535 36.3302 62.6405 36.5343C63.2428 36.5994 63.8424 36.6642 64.4384 36.7219L65.4245 41.82H63.9843C63.3078 39.0313 60.4984 37.7585 56.0654 37.7585C51.3847 37.7585 48.6762 39.5863 48.6762 42.4965C48.6762 46.0025 52.9269 47.3931 57.4034 48.8576C62.382 50.4863 67.6399 52.2064 67.6399 57.0294C67.6399 62.2032 60.4365 65.1134 53.1712 65.1134ZM78.0834 65.111C79.9906 65.0869 80.6974 65.0927 81.6621 65.1005C82.2542 65.1054 82.9433 65.111 84.0667 65.111V37.0888C80.9891 37.1278 75.3659 37.1278 72.4717 37.0888V38.8134C75.7328 38.8524 78.0743 38.8914 78.0743 41.7007L78.0834 65.111ZM138.325 65.111H136.082L121.82 41.9323C120.185 39.7261 118.99 38.7927 114.988 38.7927V37.0888C116.972 37.116 119.875 37.1053 122.315 37.0963L122.315 37.0963H122.315H122.315H122.315H122.315H122.315H122.315C123.377 37.0924 124.352 37.0888 125.125 37.0888L138.99 59.8043L150.163 40.9783C151.251 38.6416 148.78 38.7155 146.647 38.7792C146.164 38.7937 145.698 38.8076 145.294 38.7927V37.0888C147.659 37.1278 153.693 37.1278 155.573 37.0888L138.325 65.111ZM102.47 37.0888C96.6431 37.1691 94.8543 37.1691 90.8318 37.0888V38.8134C95.5744 38.9326 96.5375 39.0932 96.5375 42.3864L96.5422 65.111C99.6718 65.0562 108.125 65.0785 114.952 65.0966C117.825 65.1042 120.41 65.111 122.189 65.111L124.652 58.6278H123.202C120.956 62.7434 118.443 62.8251 113.059 63.0003L113.053 63.0004L112.644 63.0138L112.336 63.0241H102.47V37.0888ZM294.264 54.3599C293.478 52.2822 290.861 51.0988 286.536 51.0988C286.19 51.0782 280.222 51.0988 280.222 51.0988L280.197 63.0195H290.132C290.386 63.0108 290.634 63.0027 290.875 62.9948C296.243 62.8186 298.7 62.738 300.943 58.6278L302.449 58.6232L299.982 65.111C298.204 65.111 295.617 65.1042 292.74 65.0966C285.898 65.0785 277.418 65.0561 274.29 65.111L274.335 42.3864C274.335 39.0955 273.375 38.9349 268.63 38.8134V37.0911C272.654 37.1713 298.113 37.0888 298.113 37.0888L299.074 42.2993H297.672C296.881 40.2238 294.269 39.0404 289.946 39.0404L280.222 39.0542V49.2206L294.709 49.2182L295.668 54.3599H294.264ZM178.313 51.0988C182.638 51.0988 185.253 52.2822 186.042 54.3599H187.443L186.482 49.2182L171.995 49.2206V39.0542L181.721 39.0404C186.044 39.0404 188.656 40.2238 189.45 42.2993H190.853L189.892 37.0888C189.892 37.0888 164.429 37.1713 160.405 37.0911V38.8134C165.149 38.9349 166.11 39.0955 166.11 42.3864L166.065 65.111C169.193 65.0561 177.673 65.0785 184.516 65.0966H184.517C187.395 65.1042 189.983 65.111 191.761 65.111L194.224 58.6232L192.718 58.6278C190.475 62.738 188.018 62.8186 182.652 62.9948L182.65 62.9949L182.3 63.0064L181.909 63.0195H171.972L171.995 51.0988C171.995 51.0988 177.965 51.0782 178.313 51.0988ZM334.015 65.111L328.107 54.5617L313.799 54.5663L310.32 61.4188C309.401 63.3171 312.119 63.3361 314.297 63.3513C314.669 63.3539 315.025 63.3564 315.345 63.3681V65.111C312.971 65.072 307.236 65.072 305.348 65.111L317.251 42.7969C319.782 38.2584 312.717 38.7813 312.717 38.7813V37.1232L324.291 37.0888L340.136 65.1065C340.136 65.1065 336.57 65.111 334.015 65.111ZM320.525 41.015L314.792 52.6858L327.036 52.6834L320.525 41.015ZM223.052 43.9505C223.052 46.7965 220.151 49.5485 212.718 49.5485C211.691 49.5485 210.42 49.4705 209.514 49.3536V38.6506L209.625 38.6385C210.669 38.5234 211.68 38.4121 213.14 38.4121C220.27 38.4121 223.052 40.5105 223.052 43.9505ZM263.795 56.8757C263.655 52.1016 258.525 50.3903 253.685 48.776C249.312 47.3172 245.176 45.9376 245.176 42.4484C245.176 39.5634 247.838 37.7447 252.429 37.7447C256.782 37.7447 259.543 39.0084 260.206 41.7764H261.621L260.653 36.7173C260.079 36.6607 259.502 36.5976 258.922 36.5341L258.922 36.5341C257.058 36.3301 255.169 36.1234 253.278 36.1234C245.905 36.1234 240.344 38.7722 240.344 43.8726C240.344 48.8213 245.339 50.5329 250.051 52.1472C254.22 53.5755 258.166 54.9276 258.234 58.3778C258.303 61.7605 252.143 64.2029 244.868 64.2717C239.02 64.3291 234.035 62.4463 229.207 57.7105L220.756 50.4704C225.568 49.8856 229.34 47.074 229.34 43.7143C229.34 40.9073 226.799 36.7173 215.376 36.7173C214.248 36.7173 212.591 36.7206 210.726 36.7244H210.726C206.197 36.7334 200.444 36.7449 198.089 36.7173V38.4121C201.293 38.4534 203.588 38.4924 203.588 41.2581L203.561 64.3084C206.583 64.2694 209.576 64.3084 209.482 64.3084L209.514 51.2616H215.014L222.77 57.8481C223.187 58.2025 223.604 58.5802 224.036 58.9715C227.351 61.9733 231.553 65.7793 243.621 66.0674C252.296 66.2715 263.999 63.9461 263.795 56.8757ZM339.363 38.5199V39.7009H340.587C341.051 39.7101 341.372 39.5978 341.372 39.0749C341.372 38.5199 340.775 38.5199 340.372 38.5199H339.363ZM342.179 39.1941C342.179 39.9624 341.787 40.2766 341.051 40.3271L342.062 42.086H341.113L340.181 40.3271H339.363V42.086H338.544V37.9236H340.564C340.918 37.9236 341.383 37.9305 341.697 38.114C342.073 38.357 342.179 38.7607 342.179 39.1941ZM344 39.983C344 42.1158 342.264 43.8541 340.14 43.8541C337.998 43.8541 336.269 42.1158 336.269 39.983C336.269 37.8617 337.998 36.1234 340.14 36.1234C342.264 36.1234 344 37.8617 344 39.983ZM336.998 39.983C336.998 41.7328 338.393 43.1272 340.14 43.1272C341.876 43.1272 343.273 41.7328 343.273 39.983C343.273 38.2447 341.876 36.8527 340.14 36.8527C338.393 36.8527 336.998 38.2447 336.998 39.983Z" fill="white"/>
</svg>
