<?xml version="1.0" encoding="UTF-8"?>
<svg version="1.1" viewBox="0 0 10 10" xmlns="http://www.w3.org/2000/svg">
<g id="icon-header-close" transform="translate(-349 -86)" fill="#005EDC">
<g transform="translate(0 70)">
<path d="m354 20.226l4.0653-4.0653c0.21383-0.21383 0.56051-0.21383 0.77434 0 0.21383 0.21383 0.21383 0.56051 0 0.77434l-4.0653 4.0653 4.0653 4.0653c0.21383 0.21383 0.21383 0.56051 0 0.77434-0.21383 0.21383-0.56051 0.21383-0.77434 0l-4.0653-4.0653-4.0653 4.0653c-0.21383 0.21383-0.56051 0.21383-0.77434 0-0.21383-0.21383-0.21383-0.56051 0-0.77434l4.0653-4.0653-4.0653-4.0653c-0.21383-0.21383-0.21383-0.56051 0-0.77434 0.21383-0.21383 0.56051-0.21383 0.77434 0l4.0653 4.0653z"/>
</g>
</g>
</svg>
