<?xml version="1.0" encoding="utf-8"?>
<!-- Generator: Adobe Illustrator 27.1.1, SVG Export Plug-In . SVG Version: 6.00 Build 0)  -->
<svg version="1.1" id="Layer_1" xmlns="http://www.w3.org/2000/svg" xmlns:xlink="http://www.w3.org/1999/xlink" x="0px" y="0px"
	 viewBox="0 0 1185 483" style="enable-background:new 0 0 1185 483;" xml:space="preserve">
<style type="text/css">
	.st0{fill:#FFFFFF;}
	.st1{fill:#001791;}
	.st2{fill:#D4BA73;}
</style>
<path class="st0" d="M31,422.8h10.5v-55.4H31v-6.7h29.3c14,0,28.7,0.8,28.7,18.5c0,9.8-5.7,16.4-15.6,17.3v0.2
	c4.8,0.5,7.3,2.6,8.8,5.5c1.6,3,2.3,6.6,3.8,10.5l2.9,10.1h8v6.8H81.6l-4.6-15.3c-3.7-12.3-4.9-14.8-17.9-14.8h-8.2v23.3h10.5v6.8
	H31V422.8L31,422.8z M50.8,392.8h7.7c10.4,0,20.6,0,20.6-13.6c0-11.8-11.4-11.8-20.6-11.8h-7.7V392.8L50.8,392.8z"/>
<path class="st0" d="M125.4,380.4c15.6,0,25.2,9.4,25.2,25.1c0,15.7-9.6,25.1-25.2,25.1s-25.6-9.4-25.6-25.1
	C99.8,389.8,109.8,380.4,125.4,380.4z M125.4,423.9c10.9,0,15.9-8.4,15.9-18.3s-5.1-18.3-15.9-18.3s-16.3,8.4-16.3,18.3
	S114.6,423.9,125.4,423.9z"/>
<path class="st0" d="M210.4,388.2h-5.3l-19.7,45.9c-3.5,8.2-5.8,13.9-15.6,13.9c-2.2,0-4.4-0.3-6.6-0.6v-6.5
	c1.6,0.1,3.3,0.4,5.1,0.4c7.3,0,7.6-6,10.5-11.7l-18.7-41.3h-5.3v-6.7h24v6.7h-9.3l13.8,32.2l13.6-32.2h-9.3v-6.7h22.7L210.4,388.2
	L210.4,388.2z"/>
<path class="st0" d="M248.9,419.6h-0.2c-2.1,7.6-8.4,11-16.1,11c-9.6,0-18.9-4.1-18.9-14.9c0-14.6,14.3-15.5,25.9-15.5h9.3v-2.9
	c0-7.7-4-10.2-11.6-10.2c-6.5,0-11.9,1.4-12.5,8.2h-9.3c0.6-11.1,10.3-15,20.7-15c11.4,0,21.4,2.4,21.4,14.9v27.5h8.4v6.8h-17.1
	V419.6L248.9,419.6z M233.6,423.9c10.6,0,15.3-7.7,15.3-16.9h-7.3c-6.2,0-18.7,0-18.7,8.8C223,422.1,228.5,423.9,233.6,423.9z"/>
<path class="st0" d="M272,422.8h8.3v-55.4H272v-6.7h17v62.2h8.3v6.7H272V422.8z"/>
<path class="st0" d="M395.9,385.3h-8c-1.2-12.5-8.6-19-20.8-19c-15.8,0-25.1,9.4-25.1,28.8c0,16.6,8.4,28.8,25.1,28.8
	c10.2,0,19.2-6.4,19.2-17.7h9.9c0,17.5-13.8,24.4-29.1,24.4c-23,0-35-13.4-35-35.5s12-35.5,35-35.5c6.2,0,16.6,2.9,20.6,9.6h0.2
	v-8.5h8V385.3L395.9,385.3z"/>
<path class="st0" d="M438.6,419.6h-0.2c-2.1,7.6-8.4,11-16.1,11c-9.6,0-18.9-4.1-18.9-14.9c0-14.6,14.3-15.5,25.9-15.5h9.3v-2.9
	c0-7.7-4-10.2-11.6-10.2c-6.5,0-11.9,1.4-12.5,8.2h-9.3c0.6-11.1,10.3-15,20.7-15c11.4,0,21.4,2.4,21.4,14.9v27.5h8.4v6.8h-17.1
	L438.6,419.6L438.6,419.6z M423.4,423.9c10.6,0,15.3-7.7,15.3-16.9h-7.3c-6.2,0-18.6,0-18.6,8.8
	C412.7,422.1,418.2,423.9,423.4,423.9z"/>
<path class="st0" d="M460.1,422.8h8.3v-34.6h-8.3v-6.7h17v9.8h0.2c1.5-7.3,7.5-10.9,14.8-10.9c1.6,0,2.7,0.1,3.9,0.2v7.1
	c-1.4-0.2-3.2-0.5-5.2-0.5c-12.1,0-13.7,12.8-13.7,22.6v13.1h9.9v6.8h-26.9L460.1,422.8L460.1,422.8z"/>
<path class="st0" d="M501.6,422.8h8.3v-34.6h-8.3v-6.7h17v41.3h8.3v6.8h-25.3V422.8z M518.6,370.5h-9.9v-9.9h9.9V370.5z"/>
<path class="st0" d="M533.3,422.8h8.4v-55.4h-8.4v-6.7h17.1v29.6h0.2c2.7-6.2,10.1-9.8,16.7-9.8c14.9,0,23.7,9.7,23.7,25.1
	c0,15.4-8.4,25.1-23.7,25.1c-6.7,0-14.3-3.8-16.7-10.9h-0.2v9.8h-17.1V422.8L533.3,422.8z M567.3,423.9c9.2,0,14.4-7.5,14.4-18.3
	c0-9.7-5.1-18.3-14.4-18.3c-11.7,0-16.9,8.6-16.9,18.3C550.4,416.4,555.8,423.9,567.3,423.9z"/>
<path class="st0" d="M594.6,422.8h8.4v-55.4h-8.4v-6.7h17.1v29.6h0.2c2.7-6.2,10.1-9.8,16.6-9.8c14.9,0,23.7,9.7,23.7,25.1
	c0,15.4-8.4,25.1-23.7,25.1c-6.7,0-14.3-3.8-16.6-10.9h-0.2v9.8h-17.1V422.8L594.6,422.8z M628.6,423.9c9.2,0,14.4-7.5,14.4-18.3
	c0-9.7-5.1-18.3-14.4-18.3c-11.7,0-16.9,8.6-16.9,18.3C611.7,416.4,617.1,423.9,628.6,423.9z"/>
<path class="st0" d="M668.7,408c0,11.1,6.2,15.9,17.5,15.9c5.5,0,13.1-3,13.6-9.3h8c-0.3,11.8-12.7,16-22.8,16
	c-15.6,0-25.6-9.4-25.6-25.1s10-25.1,25.6-25.1c17.1,0,23.1,12.1,23.2,27.5L668.7,408L668.7,408z M699.5,401.2
	c-0.5-8.8-5.8-14-15.2-14c-8.3,0-15.7,5.2-15.7,14H699.5L699.5,401.2z"/>
<path class="st0" d="M751.1,419.6h-0.2c-2.1,7.6-8.4,11-16.1,11c-9.6,0-18.9-4.1-18.9-14.9c0-14.6,14.3-15.5,25.9-15.5h9.3v-2.9
	c0-7.7-4-10.2-11.6-10.2c-6.5,0-11.9,1.4-12.5,8.2h-9.3c0.6-11.1,10.3-15,20.7-15c11.4,0,21.4,2.4,21.4,14.9v27.5h8.4v6.8h-17.1
	L751.1,419.6L751.1,419.6z M735.9,423.9c10.6,0,15.3-7.7,15.3-16.9h-7.3c-6.2,0-18.7,0-18.7,8.8
	C725.2,422.1,730.7,423.9,735.9,423.9z"/>
<path class="st0" d="M772.6,422.8h8.3v-34.6h-8.3v-6.7h17v8.8h0.2c2.3-6.1,9-9.8,16.1-9.8c12,0,17.1,6,17.1,17.5v24.9h8.3v6.8H806
	v-6.8h8.3v-23.1c0-7.7-2.6-12.5-11.1-12.5c-9.3,0-13.7,6.5-13.7,15.1v20.5h8.3v6.8h-25.3L772.6,422.8L772.6,422.8z"/>
<path class="st0" d="M928,385.2h-7.9c-0.8-12-7.8-18.9-19.9-18.9c-15.8,0-25.1,9.4-25.1,28.8c0,16.6,8.4,28.8,25.1,28.8
	c12.7,0,20.3-9.3,20.2-21.5h-11.7v-6.8h29.6v6.8H929v27.2h-8.6v-9.8h-0.2c-4,6.3-12.4,10.9-19.9,10.9c-23,0-35-13.4-35-35.5
	c0-22.1,12-35.5,35-35.5c7,0,16.1,3.3,19.6,9.7h0.2v-8.6h8L928,385.2L928,385.2z"/>
<path class="st0" d="M943.5,422.8h8.3v-34.6h-8.3v-6.7h17v9.8h0.2c1.5-7.3,7.5-10.9,14.8-10.9c1.6,0,2.7,0.1,3.9,0.2v7.1
	c-1.4-0.2-3.2-0.5-5.2-0.5c-12.1,0-13.7,12.8-13.7,22.6v13.1h9.9v6.8h-26.9V422.8L943.5,422.8z"/>
<path class="st0" d="M1008.6,380.4c15.6,0,25.2,9.4,25.2,25.1c0,15.7-9.6,25.1-25.2,25.1c-15.6,0-25.6-9.4-25.6-25.1
	C983,389.8,993,380.4,1008.6,380.4z M1008.6,423.9c10.9,0,15.9-8.4,15.9-18.3s-5.1-18.3-15.9-18.3s-16.3,8.4-16.3,18.3
	S997.8,423.9,1008.6,423.9z"/>
<path class="st0" d="M1087.7,422.8h8.3v6.8h-17v-8.3h-0.2c-1.9,5.9-8.8,9.4-15.7,9.4c-12.4,0-17.5-6.2-17.5-17.5v-24.9h-8.3v-6.7h17
	v29.8c0,7.7,2.4,12.5,11.1,12.5c9.4,0,13.7-6.3,13.7-15.1v-20.5h-8.3v-6.7h17V422.8L1087.7,422.8z"/>
<path class="st0" d="M1098.2,440.2h8.4v-52h-8.4v-6.7h17.1v9.6h0.2c2.4-6.2,8.7-10.6,16.7-10.6c14.9,0,23.7,9.7,23.7,25.1
	c0,15.4-8.4,25.1-23.7,25.1c-7.5,0-13.5-3.5-16.7-10.3h-0.2v19.9h8.4v6.7h-25.5V440.2L1098.2,440.2z M1132.1,423.9
	c9.2,0,14.4-7.5,14.4-18.3c0-9.7-5.1-18.3-14.4-18.3c-11.7,0-16.9,8.6-16.9,18.3C1115.2,416.4,1120.6,423.9,1132.1,423.9z"/>
<path class="st1" d="M721.8,168.1c0,70.9-57.5,128.4-128.4,128.4S465.1,239,465.1,168.1S522.5,39.7,593.4,39.7
	S721.8,97.2,721.8,168.1L721.8,168.1z"/>
<path class="st2" d="M593.4,39.7c70.9,0,128.4,57.5,128.4,128.4s-57.5,128.4-128.4,128.4S465,239,465,168.1S522.5,39.7,593.4,39.7z
	 M593.4,35C520,35,460.3,94.7,460.3,168.1S520,301.2,593.4,301.2s133.1-59.7,133.1-133.1S666.8,35,593.4,35z"/>
<path class="st2" d="M625.2,116.7l11.4,10.4l-15.9,14.6l-16.2-14.9l12.6-11.6l-23.6-21.7l-23.6,21.7l12.6,11.6l-16.2,14.9
	l-15.9-14.6l11.4-10.4l-36.9-17.5l4.7,48.4h128.1l4.6-48.4L625.2,116.7z"/>
<path class="st2" d="M530.1,155.3l1.5,15.2h47.9V225l-25.6-12.2l10.3-9.5l-30.9-14.7l3.3,34.4l56.8,27l56.8-27l3.3-34.4l-30.9,14.7
	l10.3,9.5L607.3,225v-54.5h47.9l1.5-15.2H530.1z"/>
<path class="st2" d="M705.5,269.2c6.2,0,10.9,4.7,10.9,10.9c0,6.2-4.5,11.2-10.9,11.2s-10.9-5-10.9-11.2
	C694.7,273.9,699.2,269.2,705.5,269.2z M705.5,290.5c5.9,0,10-4.7,10-10.4c0-5.7-4.1-10.1-10-10.1c-5.8,0-10,4.4-10,10.1
	C695.6,285.9,699.6,290.5,705.5,290.5z M701.6,274.7h4.8c2.3,0,3.5,1.2,3.5,3.1c0,1.7-1.1,2.9-2.8,3.2l2.9,4.5h-1l-2.9-4.4h-3.7v4.4
	h-0.9V274.7L701.6,274.7z M702.5,275.5v4.8h3.9c1.8,0,2.7-1.1,2.7-2.5s-0.9-2.4-2.7-2.4H702.5z"/>
</svg>
